<svg xmlns="http://www.w3.org/2000/svg" viewBox="0 0 31 31"><defs><style>.cls-1{font-size:12px;font-family:MyriadPro-Regular, Myriad Pro;}.cls-1,.cls-3{fill:#fff;}.cls-2{fill:#d93d33;}</style></defs><title>Asset 22</title><g id="Layer_2" data-name="Layer 2"><g id="Layer_4" data-name="Layer 4"><text class="cls-1" transform="translate(8.02 16.98)">SD</text><circle class="cls-2" cx="15.5" cy="15.5" r="15.5"/><circle class="cls-2" cx="15.5" cy="15.5" r="15.5"/><circle class="cls-2" cx="15.5" cy="15.5" r="15.5"/><circle class="cls-2" cx="15.5" cy="15.5" r="15.5"/><circle class="cls-2" cx="15.5" cy="15.5" r="15.5"/><path class="cls-3" d="M23.84,18.42a5.05,5.05,0,0,1-3.46,1.08h-.46v-8h.68A4.48,4.48,0,0,1,24,12.71a3.46,3.46,0,0,1,.8,1.29A4.88,4.88,0,0,1,25,15.6,3.55,3.55,0,0,1,23.84,18.42ZM18.43,19.5H13.7v-12h4.73Z"/><rect class="cls-2" x="13.22" y="5.92" width="6.09" height="14.03"/><path class="cls-3" d="M6.87,11.5h3.24v8H9.59C8.15,19.49,7.29,19,7,18a4.08,4.08,0,0,1-.14-1.1Zm4.35,0h3.25v8H11.22Zm4.35,0h3.24v5.43a2.65,2.65,0,0,1-.59,1.9,2.92,2.92,0,0,1-2.13.66h-.52Z"/></g></g></svg>